<svg width="96" height="96" xmlns="http://www.w3.org/2000/svg" xmlns:xlink="http://www.w3.org/1999/xlink" xml:space="preserve" overflow="hidden"><g transform="translate(-464 -280)"><path d="M549.4 338.7 549.4 331.6C549.4 326.8 541.7 323.6 532.4 322.3L532.4 316.6C532.4 315 531.5 312.8 527.4 310.7L527.4 303.6C527.4 297.1 513.5 293.6 500.4 293.6 487.3 293.6 473.4 297.1 473.4 303.6L473.4 311.6C473.4 314 475.3 316 478.4 317.6L478.4 324.6C478.4 324.6 478.4 324.6 478.4 324.7 474.3 326.8 473.4 329.1 473.4 330.6L473.4 338.6C473.4 345.1 487.3 348.6 500.4 348.6L500.4 352.6C500.4 359.1 514.3 362.6 527.4 362.6 540.5 362.6 554.4 359.1 554.4 352.6L554.4 344.6C554.4 343.1 553.5 340.8 549.4 338.7ZM552.4 344.7C552.4 348.5 542.1 352.7 527.4 352.7 515.7 352.7 506.8 350 503.6 347 503.6 347 503.6 347 503.6 347 509.7 348.9 516 349.8 522.3 349.7 534.5 349.7 547.5 346.6 549.1 341 551.3 342.1 552.4 343.4 552.4 344.7ZM535.4 354.2 535.4 360.2C534.1 360.3 532.8 360.5 531.4 360.5L531.4 354.5C532.8 354.5 534.1 354.4 535.4 354.2ZM537.4 354C538.8 353.8 540.1 353.6 541.4 353.3L541.4 359.2C540.2 359.5 538.8 359.7 537.4 359.9L537.4 354ZM543.4 352.8C544.8 352.5 546.1 352 547.4 351.5L547.4 357.3C546.1 357.9 544.8 358.3 543.4 358.7L543.4 352.8ZM511.4 358.7C510 358.3 508.7 357.9 507.4 357.3L507.4 351.5C508.7 352 510 352.4 511.4 352.8L511.4 358.7ZM513.4 353.3C514.7 353.6 516 353.8 517.4 354L517.4 360C516 359.8 514.6 359.5 513.4 359.3L513.4 353.3ZM519.4 354.2C520.7 354.3 522.1 354.5 523.4 354.5L523.4 360.5C522 360.4 520.7 360.3 519.4 360.2L519.4 354.2ZM495.4 331.7 495.4 332C494 331.8 492.6 331.5 491.4 331.3L491.4 325.4C492.7 325.7 494 325.9 495.4 326.1L495.4 331.7ZM497.4 339.7 497.4 335.7C498.3 336.5 499.3 337.2 500.4 337.7L500.4 343.4C498.5 342.1 497.4 340.9 497.4 339.7L497.4 339.7ZM547.4 339.7C547.4 340.9 546.3 342.2 544.4 343.3L544.4 337.6C545.5 337.1 546.5 336.4 547.4 335.6L547.4 339.7ZM542.4 344.3C541.1 344.9 539.8 345.3 538.4 345.7L538.4 339.8C539.8 339.5 541.1 339 542.4 338.5L542.4 344.3ZM536.4 346.2C535.2 346.5 533.8 346.7 532.4 346.9L532.4 340.9C533.8 340.7 535.1 340.5 536.4 340.2L536.4 346.2ZM530.4 347.2C529.1 347.3 527.8 347.5 526.4 347.5L526.4 341.5C527.7 341.4 529.1 341.3 530.4 341.2L530.4 347.2ZM524.4 347.6C523.7 347.6 523.1 347.6 522.4 347.6 521.7 347.6 521.1 347.6 520.4 347.6L520.4 341.6C521.1 341.6 521.7 341.6 522.4 341.6 523.1 341.6 523.7 341.6 524.4 341.6L524.4 347.6ZM518.4 347.6C517 347.5 515.7 347.4 514.4 347.3L514.4 341.3C515.7 341.4 517.1 341.6 518.4 341.6L518.4 347.6ZM512.4 347C511 346.8 509.6 346.5 508.4 346.3L508.4 340.4C509.7 340.7 511 340.9 512.4 341.1L512.4 347ZM506.4 345.7C505 345.3 503.7 344.9 502.4 344.3L502.4 338.5C503.7 339 505 339.4 506.4 339.8L506.4 345.7ZM547.4 331.7C547.4 335.5 537.1 339.7 522.4 339.7 507.7 339.7 497.4 335.5 497.4 331.7 497.4 327.9 507.7 323.7 522.4 323.7 537.1 323.7 547.4 327.9 547.4 331.7ZM497.4 327.7 497.4 326.2C498 326.3 498.6 326.3 499.2 326.4 498.6 326.8 498 327.2 497.4 327.7ZM528.7 321.9C529.3 321.5 529.9 321.1 530.5 320.6L530.5 322.1C529.8 322 529.3 322 528.7 321.9ZM527.2 312.9C529.3 314.1 530.4 315.4 530.4 316.6 530.4 318.3 528.2 320.2 524.5 321.6 523.8 321.6 523.1 321.6 522.4 321.6 515.4 321.6 508.1 322.6 502.9 324.6 492.4 324.3 484.6 321.8 481.7 319 481.7 319 481.7 319 481.7 319 487.8 320.9 494.1 321.8 500.4 321.7 512.6 321.7 525.6 318.6 527.2 312.9ZM489.4 324.8 489.4 330.7C488 330.3 486.7 329.9 485.4 329.3L485.4 323.5C486.7 324 488.1 324.5 489.4 324.8ZM483.4 322.6 483.4 328.3C481.5 327.1 480.4 325.9 480.4 324.7L480.4 320.7C481.3 321.4 482.3 322.1 483.4 322.6ZM480.4 316.3 480.4 310.5C481.7 311 483 311.4 484.4 311.8L484.4 317.7C483.1 317.3 481.7 316.9 480.4 316.3ZM486.4 318.2 486.4 312.3C487.7 312.6 489 312.8 490.4 313L490.4 319C489 318.8 487.7 318.5 486.4 318.2ZM492.4 319.2 492.4 313.2C493.7 313.3 495.1 313.5 496.4 313.5L496.4 319.5C495 319.5 493.7 319.4 492.4 319.2ZM498.4 319.6 498.4 313.6C499.1 313.6 499.7 313.6 500.4 313.6 501.1 313.6 501.7 313.6 502.4 313.6L502.4 319.6C501.7 319.6 501.1 319.6 500.4 319.6 499.7 319.6 499.1 319.7 498.4 319.6ZM504.4 319.6 504.4 313.6C505.7 313.5 507.1 313.4 508.4 313.3L508.4 319.3C507.1 319.4 505.8 319.5 504.4 319.6ZM510.4 319 510.4 313C511.8 312.8 513.1 312.6 514.4 312.3L514.4 318.2C513.2 318.5 511.8 318.8 510.4 319ZM516.4 317.7 516.4 311.8C517.8 311.5 519.1 311 520.4 310.5L520.4 316.3C519.1 316.9 517.8 317.3 516.4 317.7ZM522.4 315.3 522.4 309.6C523.5 309.1 524.5 308.4 525.4 307.6L525.4 311.6C525.4 312.9 524.4 314.1 522.4 315.3ZM478.4 315.3C476.5 314.1 475.4 312.9 475.4 311.7L475.4 307.7C476.3 308.5 477.3 309.2 478.4 309.7L478.4 315.3ZM475.4 303.7C475.4 299.9 485.7 295.7 500.4 295.7 515.1 295.7 525.4 299.9 525.4 303.7 525.4 307.5 515.1 311.7 500.4 311.7 485.7 311.7 475.4 307.4 475.4 303.7ZM478.9 326.7C480.7 330.4 487.5 332.8 495.4 333.9L495.4 338.4C483.4 337.6 475.4 333.9 475.4 330.6 475.4 329.3 476.7 328 478.9 326.7ZM478.4 342.3C476.5 341.1 475.4 339.9 475.4 338.7L475.4 334.7C476.3 335.5 477.3 336.2 478.4 336.7L478.4 342.3ZM484.4 344.7C483 344.3 481.7 343.9 480.4 343.3L480.4 337.5C481.7 338 483 338.4 484.4 338.8L484.4 344.7ZM490.4 346C489 345.8 487.6 345.5 486.4 345.3L486.4 339.4C487.7 339.7 489 339.9 490.4 340.1L490.4 346ZM492.4 340.2C493.4 340.3 494.4 340.4 495.5 340.5 495.6 341.2 496 341.9 496.4 342.6L496.4 346.6C495 346.5 493.7 346.4 492.4 346.3L492.4 340.2ZM498.4 344.4C499 344.8 499.7 345.2 500.4 345.6L500.4 346.6C499.7 346.6 499.1 346.6 498.4 346.6L498.4 344.4ZM502.4 352.7 502.4 348.7C503.3 349.5 504.3 350.2 505.4 350.7L505.4 356.4C503.5 355.1 502.4 353.9 502.4 352.7L502.4 352.7ZM525.4 354.6C526.1 354.6 526.7 354.6 527.4 354.6 528.1 354.6 528.7 354.6 529.4 354.6L529.4 360.6C528.7 360.6 528.1 360.6 527.4 360.6 526.7 360.6 526.1 360.6 525.4 360.6L525.4 354.6ZM549.4 350.6C550.5 350.1 551.5 349.4 552.4 348.6L552.4 352.6C552.4 353.8 551.3 355.1 549.4 356.2L549.4 350.6Z" stroke="#A6A6A6" fill="none"/></g></svg>